<?xml version="1.0" encoding="utf-8"?>
<!-- Generator: Adobe Illustrator 15.0.0, SVG Export Plug-In . SVG Version: 6.00 Build 0)  -->
<!DOCTYPE svg PUBLIC "-//W3C//DTD SVG 1.1//EN" "http://www.w3.org/Graphics/SVG/1.1/DTD/svg11.dtd" [
	<!ENTITY ns_extend "http://ns.adobe.com/Extensibility/1.0/">
	<!ENTITY ns_ai "http://ns.adobe.com/AdobeIllustrator/10.0/">
	<!ENTITY ns_graphs "http://ns.adobe.com/Graphs/1.0/">
	<!ENTITY ns_vars "http://ns.adobe.com/Variables/1.0/">
	<!ENTITY ns_imrep "http://ns.adobe.com/ImageReplacement/1.0/">
	<!ENTITY ns_sfw "http://ns.adobe.com/SaveForWeb/1.0/">
	<!ENTITY ns_custom "http://ns.adobe.com/GenericCustomNamespace/1.0/">
	<!ENTITY ns_adobe_xpath "http://ns.adobe.com/XPath/1.0/">
]>
<svg version="1.1" id="Layer_1" xmlns:x="&ns_extend;" xmlns:i="&ns_ai;" xmlns:graph="&ns_graphs;"
	 xmlns="http://www.w3.org/2000/svg" xmlns:xlink="http://www.w3.org/1999/xlink" x="0px" y="0px" width="800px" height="800px"
	 viewBox="0 0 800 800" enable-background="new 0 0 800 800" xml:space="preserve">
<metadata>
	<sfw  xmlns="&ns_sfw;">
		<slices></slices>
		<sliceSourceBounds  y="-728.525" x="271.971" width="256.058" height="657.05" bottomLeftOrigin="true"></sliceSourceBounds>
	</sfw>
</metadata>
<g id="layer1" inkscape:groupmode="layer" inkscape:label="Layer 1">
	<path id="path2558" d="M353.469,727.714c-10.52-3.451-18.851-11.215-21.23-19.785c-0.948-3.414-1.4-73.268-1.405-217.225
		l-0.007-212.194h-5.33h-5.33v80.099c0,78.523-0.054,80.193-2.755,84.943c-3.499,6.152-7.427,9.035-15.116,11.092
		c-11.367,3.041-23.798-2.764-28.263-13.197c-2.873-6.715-2.685-185.76,0.206-196.859c6.517-25.018,27.619-45.514,52.231-50.729
		c12.965-2.747,132.834-2.781,145.76-0.041c13.166,2.791,24.477,9.104,34.482,19.249c10.293,10.435,15.1,18.899,18.682,32.913
		c2.498,9.767,2.637,14.998,2.637,100.075c0,77.771-0.275,90.426-2.051,94.676c-2.76,6.607-5.602,9.58-11.941,12.492
		c-10.52,4.83-23.891,1.721-30.111-7l-3.199-4.486l-0.363-81.613l-0.361-81.612h-5.301h-5.299v213.235
		c0,233.746,0.527,218.227-7.734,226.93c-6.525,6.875-13.18,9.477-24.246,9.477s-17.721-2.602-24.246-9.477
		c-8.102-8.535-7.732-1.92-7.732-138.988V454.394h-5.33h-5.33v125.293c0,102.107-0.332,126.088-1.797,129.582
		c-2.684,6.406-8.523,12.723-14.654,15.85C372.424,728.132,359.011,729.532,353.469,727.714z M383.44,178.92
		c-16.107-5.754-26.062-14.622-33.109-29.494c-3.9-8.231-4.182-9.813-4.182-23.511c0-13.859,0.242-15.177,4.309-23.437
		c20.311-41.259,78.95-41.359,99.228-0.172c4.197,8.528,4.393,9.604,4.393,24.275c0,14.109-0.301,15.964-3.725,22.936
		c-5.75,11.711-14.244,20.25-25.848,25.983c-9.006,4.452-11.295,5.007-22.213,5.384C393.131,181.201,388.468,180.715,383.44,178.92z
		"/>
</g>
</svg>
